<svg width="11" height="17" viewBox="0 0 11 17" fill="none" xmlns="http://www.w3.org/2000/svg">
<path d="M4.5 14.3281C4.5 15.4395 3.6 16.3489 2.5 16.3489C1.4 16.3489 0.5 15.4395 0.5 14.3281C0.5 13.2166 1.4 12.3073 2.5 12.3073C3.6 12.3073 4.5 13.2166 4.5 14.3281ZM2.5 6.24475C1.4 6.24475 0.5 7.15413 0.5 8.26558C0.5 9.37704 1.4 10.2864 2.5 10.2864C3.6 10.2864 4.5 9.37704 4.5 8.26558C4.5 7.15413 3.6 6.24475 2.5 6.24475ZM2.5 0.182251C1.4 0.182251 0.5 1.09163 0.5 2.20308C0.5 3.31454 1.4 4.22392 2.5 4.22392C3.6 4.22392 4.5 3.31454 4.5 2.20308C4.5 1.09163 3.6 0.182251 2.5 0.182251ZM8.5 4.22392C9.6 4.22392 10.5 3.31454 10.5 2.20308C10.5 1.09163 9.6 0.182251 8.5 0.182251C7.4 0.182251 6.5 1.09163 6.5 2.20308C6.5 3.31454 7.4 4.22392 8.5 4.22392ZM8.5 6.24475C7.4 6.24475 6.5 7.15413 6.5 8.26558C6.5 9.37704 7.4 10.2864 8.5 10.2864C9.6 10.2864 10.5 9.37704 10.5 8.26558C10.5 7.15413 9.6 6.24475 8.5 6.24475ZM8.5 12.3073C7.4 12.3073 6.5 13.2166 6.5 14.3281C6.5 15.4395 7.4 16.3489 8.5 16.3489C9.6 16.3489 10.5 15.4395 10.5 14.3281C10.5 13.2166 9.6 12.3073 8.5 12.3073Z" fill="#828282"/>
</svg>
