<svg width="27" height="29" viewBox="0 0 27 29" fill="none" xmlns="http://www.w3.org/2000/svg">
<path d="M14.2635 3.24628L16.4323 3.67911L12.2938 22.7239L10.1249 22.2911L14.2635 3.24628ZM21.6774 12.9851L17.7048 9.10038V6.03807L24.8089 12.9851L17.7048 19.9213V16.859L21.6774 12.9851ZM1.74829 12.9851L8.85239 6.03807V9.10038L4.87985 12.9851L8.85239 16.859V19.9213L1.74829 12.9851Z" fill="#616161"/>
<path d="M26 22.5075C26 25.5199 23.4964 28 20.3607 28C17.2249 28 14.7213 25.5199 14.7213 22.5075C14.7213 19.495 17.2249 17.0149 20.3607 17.0149C23.4964 17.0149 26 19.495 26 22.5075Z" fill="#616161" stroke="white" stroke-width="2"/>
<path d="M23.4591 22.9403H20.8033V25.5373H19.9181V22.9403H17.2623V22.0746H19.9181V19.4776H20.8033V22.0746H23.4591V22.9403Z" fill="white"/>
</svg>
