<svg width="21" height="21" viewBox="0 0 21 21" fill="none" xmlns="http://www.w3.org/2000/svg">
<path d="M16.625 16.625H4.375V4.375H10.5V2.625H4.375C3.40375 2.625 2.625 3.4125 2.625 4.375V16.625C2.625 17.5875 3.40375 18.375 4.375 18.375H16.625C17.5875 18.375 18.375 17.5875 18.375 16.625V10.5H16.625V16.625ZM12.25 2.625V4.375H15.3913L6.79 12.9762L8.02375 14.21L16.625 5.60875V8.75H18.375V2.625H12.25Z" fill="#616161"/>
<path d="M16.625 16.625H4.375V4.375H10.5V2.625H4.375C3.40375 2.625 2.625 3.4125 2.625 4.375V16.625C2.625 17.5875 3.40375 18.375 4.375 18.375H16.625C17.5875 18.375 18.375 17.5875 18.375 16.625V10.5H16.625V16.625ZM12.25 2.625V4.375H15.3913L6.79 12.9762L8.02375 14.21L16.625 5.60875V8.75H18.375V2.625H12.25Z" fill="#616161"/>
</svg>
